<?xml version="1.0"?>
<svg xmlns="http://www.w3.org/2000/svg" id="Capa_1" enable-background="new 0 0 512 512" height="512px" viewBox="0 0 512 512" width="512px" class=""><g><path d="m271 85-15 20h-10v195h25z" fill="#4b9bc0" data-original="#4B9BC0" class="active-path" data-old_color="#4b9bc0" style="fill:#C04B4B"/><path d="m241 85v215h15v-195z" fill="#51bba1" data-original="#51BBA1" class="" data-old_color="#51bba1" style="fill:#DE2F2F"/><path d="m256 285-90 175 240-100v-75z" fill="#ff6358" data-original="#FF6358" class="" data-old_color="#ff6358" style="fill:#844E3C"/><path d="m256 285h-150v75l150 100z" fill="#ff855c" data-original="#FF855C" class="" data-old_color="#ff855c" style="fill:#C78666"/><path d="m256 512h100.861l49.139-152h-150l-90 76z" fill="#ff4154" data-original="#FF4154" class="" data-old_color="#ff4154" style="fill:#A26243"/><path d="m106 360 49.139 152h100.861v-152z" fill="#ff6358" data-original="#FF6358" class="" data-old_color="#ff6358" style="fill:#844E3C"/><path d="m151 135c57.897 0 105 47.103 105 105l20 7.5-20 7.5h-90c-57.897 0-105-47.103-105-105v-15z" fill="#5dfb61" data-original="#5DFB61" class="" data-old_color="#5dfb61" style="fill:#FF4D4D"/><path d="m361 135h60l-105 120h-60v-15c0-57.897 47.103-105 105-105z" fill="#57db81" data-original="#57DB81" class="" style="fill:#FF4D4D" data-old_color="#57db81"/><path d="m421 135h30v15c0 57.897-47.103 105-105 105h-30v-15c0-57.897 47.103-105 105-105z" fill="#51bba1" data-original="#51BBA1" class="" data-old_color="#51bba1" style="fill:#DE2F2F"/><path d="m361 0c-57.897 0-105 47.103-105 105l-20 7.5 20 7.5h90c57.897 0 105-47.103 105-105v-15z" fill="#51bba1" data-original="#51BBA1" class="" data-old_color="#51bba1" style="fill:#DE2F2F"/><path d="m151 0h-60l105 120h60v-15c0-57.897-47.103-105-105-105z" fill="#57db81" data-original="#57DB81" class="" style="fill:#FF4D4D" data-old_color="#57db81"/><path d="m91 0h-30v15c0 57.897 47.103 105 105 105h30v-15c0-57.897-47.103-105-105-105z" fill="#5dfb61" data-original="#5DFB61" class="" data-old_color="#5dfb61" style="fill:#FF4D4D"/></g> </svg>
