<svg id="Capa_1" enable-background="new 0 0 512 512" height="512" viewBox="0 0 512 512" width="512" xmlns="http://www.w3.org/2000/svg"><g><g><path d="m346.663 434.702c-3.928 0-7.26-3.019-7.579-7.002-.932-11.596-11.74-12.868-13.897-13.005-4.199-.194-7.414-3.754-7.221-7.953.193-4.198 3.745-7.449 7.986-7.251 9.074.419 26.668 6.6 28.305 26.99.337 4.19-2.787 7.86-6.977 8.196-.207.017-.413.025-.617.025z" fill="#ffe07d"/></g><g><path d="m346.679 434.702c-.204 0-.409-.008-.617-.025-4.19-.336-7.314-4.006-6.977-8.196 1.637-20.39 19.23-26.571 28.304-26.99 4.183-.168 7.76 3.054 7.954 7.253.193 4.181-3.026 7.73-7.199 7.951-2.181.141-12.956 1.428-13.886 13.005-.319 3.982-3.651 7.002-7.579 7.002z" fill="#ffe07d"/></g><path d="m65.562 332.782h192.041v171.606h-192.041z" fill="#dd636e"/><path d="m226.347 332.782h21.107v171.606h-21.107z" fill="#da4a54"/><path d="m268.156 299.794h-213.148c-4.013 0-7.267 3.254-7.267 7.267v18.454c0 4.013 3.254 7.267 7.267 7.267h213.147c4.013 0 7.267-3.254 7.267-7.267v-18.454c.001-4.013-3.253-7.267-7.266-7.267z" fill="#ffe07d"/><path d="m235.387 328.181h50.825v176.208h-50.825z" fill="#986b54"/><path d="m235.387 398.577c5.693 1.546 12.361 2.506 20.624 2.506 13.367 0 22.568-2.507 30.201-5.958v-66.945h-50.825z" fill="#845c47"/><path d="m92.375 372.018c-3.176 3.884.122 9.614 5.083 8.861 30.379-4.608 34.698-24.899 72.735-24.899 42.909 0 42.909 25.822 85.818 25.822 42.903 0 42.903-25.822 85.807-25.822 38.032 0 42.351 20.29 72.725 24.899 4.96.753 8.259-4.977 5.083-8.861l-163.626-200.101z" fill="#78c2a4"/><path d="m419.625 372.017c-31.331-38.315-140.367-171.658-163.625-200.1-.776.949-23.512 28.754-24.708 30.216-14.903 18.225-34.775 42.527-54.532 66.688 3.219-.515 6.797-.814 10.872-.814 34.188 0 34.188 20.574 68.376 20.574 5.978 0 10.911-.629 15.164-1.667 15.139-3.696 31.041 1.952 40.906 14.016 18.883 23.092 36.005 44.031 46.283 56.6 23.654 4.821 30.895 19.519 56.192 23.351 4.954.75 8.244-4.986 5.072-8.864z" fill="#66b394"/><path d="m127.543 254.192c-3.273 4.002.333 9.885 5.389 8.806 21.333-4.551 25.806-19.247 54.701-19.247 34.188 0 34.188 20.574 68.376 20.574 34.183 0 34.183-20.574 68.367-20.574 28.891 0 33.365 14.696 54.693 19.247 5.056 1.079 8.662-4.804 5.389-8.806l-128.458-157.094z" fill="#78c2a4"/><path d="m384.463 254.198c-32.702-39.992-100.483-122.883-128.462-157.1-6.166 7.54-43.165 52.788-60.452 73.928 1.367-.094 2.793-.152 4.315-.152 28.072 0 28.072 16.893 56.144 16.893 4.559 0 8.378-.446 11.697-1.192 11.518-2.592 23.503 1.727 30.976 10.867 15.831 19.36 30.327 37.087 38.877 47.544 17.806 3.629 23.939 14.283 41.561 18.023 5.035 1.069 8.603-4.826 5.344-8.811z" fill="#66b394"/><path d="m152.397 155.29c-3.379 4.133.585 10.236 5.704 8.722 14.906-4.409 19.531-15.004 41.763-15.004 28.072 0 28.072 16.893 56.144 16.893 28.068 0 28.068-16.893 56.136-16.893 22.228 0 26.854 10.594 41.756 15.003 5.119 1.514 9.083-4.59 5.704-8.722l-103.604-126.697z" fill="#78c2a4"/><g><path d="m322.967 150.023c13.478 2.747 18.81 10.395 30.896 13.98 5.134 1.523 9.129-4.57 5.739-8.715l-103.601-126.696s-12.18 14.896-16.165 19.768c20.49 25.058 66.127 80.868 83.131 101.663z" fill="#66b394"/></g><path d="m248.001 61.706-17.424-22.752c-2.768-3.615-2.768-8.637 0-12.251l17.424-22.752c4.033-5.266 11.965-5.266 15.998 0l17.424 22.752c2.768 3.615 2.768 8.637 0 12.251l-17.423 22.752c-4.033 5.266-11.966 5.266-15.999 0z" fill="#ffe07d"/><path d="m281.423 26.702-17.423-22.752c-4.033-5.266-11.965-5.266-15.998 0l-2.308 3.013 15.116 19.739c2.768 3.615 2.768 8.637 0 12.251l-15.116 19.739 2.308 3.013c4.033 5.266 11.965 5.266 15.998 0l17.424-22.752c2.767-3.615 2.767-8.636-.001-12.251z" fill="#ffd064"/><g><path d="m166.132 504.388h-51.853c-8.654 0-15.669-7.015-15.669-15.669v-44.704h83.192v44.704c-.001 8.654-7.016 15.669-15.67 15.669z" fill="#78c2a4"/><path d="m191.796 413.155h-103.181c-1.579 0-2.859 1.28-2.859 2.859v25.143c0 1.579 1.28 2.858 2.859 2.858h103.181c1.579 0 2.859-1.28 2.859-2.858v-25.143c0-1.579-1.28-2.859-2.859-2.859z" fill="#ffe07d"/></g><path d="m280.357 451.935h132.627v52.454h-132.627z" fill="#707dd3"/><path d="m420.829 423.031h-148.316c-2.401 0-4.348 1.947-4.348 4.348v20.207c0 2.401 1.947 4.348 4.348 4.348h148.316c2.401 0 4.348-1.947 4.348-4.348v-20.207c0-2.401-1.947-4.348-4.348-4.348z" fill="#5766cb"/><g><path d="m472.154 512h-432.307c-4.204 0-7.611-3.407-7.611-7.612s3.407-7.612 7.611-7.612h432.307c4.204 0 7.611 3.407 7.611 7.612s-3.407 7.612-7.611 7.612z" fill="#845c47"/></g><g><g><path d="m239.829 113.102c-1.525 0-3.064-.457-4.402-1.408-3.426-2.435-4.23-7.187-1.795-10.613l5.858-8.243c2.436-3.426 7.186-4.232 10.613-1.795 3.426 2.435 4.23 7.187 1.795 10.613l-5.858 8.243c-1.485 2.088-3.83 3.203-6.211 3.203z" fill="#f9f6f9"/></g><g><path d="m178.865 328.022c-1.525 0-3.064-.457-4.402-1.408-3.426-2.435-4.23-7.187-1.795-10.613l5.858-8.243c2.436-3.425 7.186-4.232 10.613-1.795 3.426 2.435 4.23 7.187 1.795 10.613l-5.858 8.243c-1.484 2.088-3.829 3.203-6.211 3.203z" fill="#f9f6f9"/></g><g><path d="m232.451 323.901c-1.524 0-3.064-.457-4.402-1.408-3.426-2.435-4.23-7.186-1.795-10.613l5.858-8.244c2.433-3.424 7.185-4.233 10.613-1.795 3.426 2.435 4.23 7.186 1.795 10.613l-5.858 8.244c-1.483 2.088-3.829 3.203-6.211 3.203z" fill="#f9f6f9"/></g><g><path d="m201.859 214.733c-1.524 0-3.063-.457-4.401-1.407-3.427-2.435-4.231-7.187-1.797-10.613l5.857-8.244c2.435-3.426 7.184-4.232 10.613-1.797 3.427 2.435 4.231 7.187 1.797 10.613l-5.857 8.244c-1.484 2.089-3.83 3.204-6.212 3.204z" fill="#f9f6f9"/></g><g><path d="m275.43 136.065c-2.719 0-5.348-1.46-6.72-4.025l-3.548-6.635c-1.982-3.707-.584-8.318 3.124-10.301 3.705-1.981 8.318-.584 10.301 3.124l3.548 6.635c1.982 3.707.584 8.318-3.124 10.301-1.141.61-2.37.901-3.581.901z" fill="#f9f6f9"/></g><g><path d="m287.993 206.49c-2.719 0-5.348-1.46-6.72-4.025l-3.548-6.635c-1.982-3.707-.584-8.318 3.124-10.301 3.705-1.981 8.318-.584 10.301 3.124l3.548 6.635c1.982 3.707.584 8.318-3.124 10.301-1.141.611-2.37.901-3.581.901z" fill="#f9f6f9"/></g><g><path d="m282.138 301.626c-2.719 0-5.348-1.46-6.72-4.025l-3.548-6.635c-1.982-3.707-.584-8.318 3.124-10.301 3.705-1.981 8.318-.584 10.301 3.124l3.548 6.635c1.982 3.707.584 8.318-3.124 10.301-1.141.61-2.37.901-3.581.901z" fill="#f9f6f9"/></g><g><path d="m257.781 230.765c-2.719 0-5.348-1.46-6.72-4.025l-3.548-6.635c-1.982-3.707-.584-8.318 3.124-10.301 3.704-1.981 8.318-.584 10.301 3.124l3.548 6.635c1.982 3.707.584 8.318-3.124 10.301-1.141.611-2.37.901-3.581.901z" fill="#f9f6f9"/></g><g><path d="m327.383 339.112c-2.719 0-5.348-1.46-6.72-4.025l-3.548-6.636c-1.982-3.707-.584-8.319 3.124-10.301 3.71-1.982 8.319-.583 10.301 3.124l3.548 6.636c1.982 3.707.584 8.319-3.124 10.301-1.142.611-2.371.901-3.581.901z" fill="#f9f6f9"/></g></g></g></svg>