<svg viewBox="0 0 512 512.00235" xmlns="http://www.w3.org/2000/svg"><path d="m112.984375 186.886719-22.644531-22.640625-24.125 265.238281 96.859375-77.160156c12.035156-60.179688-6.679688-122.023438-50.089844-165.4375zm0 0" fill="#a8d32a"/><path d="m306.148438 466.285156c-41.140626-68.507812-122.761719-98.734375-198.574219-73.46875l-68.839844 96.183594h281.054687zm0 0" fill="#93bf00"/><path d="m0 490.785156 219.042969-219.042968 21.214843 21.210937-219.042968 219.042969zm0 0" fill="#68544f"/><path d="m21.214844 512.003906-10.605469-10.609375 219.042969-219.042969 10.605468 10.609376zm0 0" fill="#53433f"/><path d="m436.003906 176.28125-94.132812-6.152344-6.148438-94.128906h100.28125zm0 0" fill="#ff001e"/><path d="m436.003906 176.28125-94.132812-6.152344 94.132812-94.128906zm0 0" fill="#ba000e"/><path d="m368.8125 143.1875-91.980469-2.375-51.207031-45.351562 95.457031-95.460938zm0 0" fill="#ff3939"/><path d="m225.625 95.460938-6.574219 6.574218c-52.609375 52.609375-52.609375 138.3125 0 190.917969 52.605469 52.609375 138.308594 52.609375 190.917969 0l102.035156-102.035156zm0 0" fill="#ff5b5b"/><path d="m512.003906 190.917969-102.035156 102.035156c-52.609375 52.609375-138.3125 52.609375-190.917969 0l149.761719-149.765625zm0 0" fill="#ff3939"/></svg>