<?xml version="1.0" encoding="iso-8859-1"?>
<!-- Generator: Adobe Illustrator 19.0.0, SVG Export Plug-In . SVG Version: 6.00 Build 0)  -->
<svg version="1.1" id="Capa_1" xmlns="http://www.w3.org/2000/svg" xmlns:xlink="http://www.w3.org/1999/xlink" x="0px" y="0px"
	 viewBox="0 0 512.257 512.257" style="enable-background:new 0 0 512.257 512.257;" xml:space="preserve">
<path style="fill:#F44336;" d="M425.674,155.243C369.204,42.177,298.228,0.022,266.804,0.022
	c-11.797-0.295-23.479,2.391-33.963,7.808c-6.202,3.763-14.035,3.537-20.011-0.576c-9.797-4.679-20.503-7.148-31.36-7.232
	c-28.821,0-107.605,91.733-117.099,136.533c-0.615,2.985,0.076,6.091,1.899,8.533l62.805,83.755
	c2.411,8.832,6.208,27.115,10.197,46.379c6.955,33.579,14.933,71.637,21.333,90.923c1.135,3.31,3.822,5.854,7.189,6.805
	c0.979,0.274,1.991,0.41,3.008,0.405c2.478-0.005,4.876-0.872,6.784-2.453l245.333-202.667
	C426.752,165.073,427.893,159.686,425.674,155.243z"/>
<path style="fill:#CFD8DC;" d="M485.578,175.915c-35.278-35.258-92.406-35.41-127.872-0.341
	c-6.016,5.483-16.597,14.549-29.867,25.877c-50.773,43.477-135.787,116.245-162.496,155.733
	c-35.558,35.273-35.79,92.693-0.517,128.251c35.273,35.558,92.693,35.79,128.251,0.517c7.713-7.651,13.988-16.626,18.527-26.496
	c31.674-38.932,68.867-73.028,110.4-101.205c23.141-15.65,44.49-33.8,63.659-54.123
	C520.971,268.669,520.933,211.327,485.578,175.915z"/>
<path style="fill:#D32F2F;" d="M133.578,188.033c-5.891-0.013-10.656-4.799-10.643-10.69c0.004-1.906,0.519-3.777,1.491-5.417
	c2.667-4.501,26.965-43.904,57.045-43.904c5.891,0,10.667,4.776,10.667,10.667c0,5.891-4.776,10.667-10.667,10.667
	c-14.229,0-32.235,22.549-38.72,33.472C140.825,186.059,137.34,188.036,133.578,188.033z"/>
<circle style="fill:#FFC107;" cx="74.804" cy="202.689" r="74.667"/>
<g>
</g>
<g>
</g>
<g>
</g>
<g>
</g>
<g>
</g>
<g>
</g>
<g>
</g>
<g>
</g>
<g>
</g>
<g>
</g>
<g>
</g>
<g>
</g>
<g>
</g>
<g>
</g>
<g>
</g>
</svg>
