<?xml version="1.0" encoding="UTF-8" standalone="no"?>
<svg
   xmlns:dc="http://purl.org/dc/elements/1.1/"
   xmlns:cc="http://creativecommons.org/ns#"
   xmlns:rdf="http://www.w3.org/1999/02/22-rdf-syntax-ns#"
   xmlns:svg="http://www.w3.org/2000/svg"
   xmlns="http://www.w3.org/2000/svg"
   xmlns:sodipodi="http://sodipodi.sourceforge.net/DTD/sodipodi-0.dtd"
   xmlns:inkscape="http://www.inkscape.org/namespaces/inkscape"
   id="Capa_1"
   enable-background="new 0 0 512 512"
   height="512"
   viewBox="0 0 512 512"
   width="512"
   version="1.1"
   sodipodi:docname="sept3.svg"
   inkscape:version="0.92.3 (2405546, 2018-03-11)">
  <metadata
     id="metadata25">
    <rdf:RDF>
      <cc:Work
         rdf:about="">
        <dc:format>image/svg+xml</dc:format>
        <dc:type
           rdf:resource="http://purl.org/dc/dcmitype/StillImage" />
      </cc:Work>
    </rdf:RDF>
  </metadata>
  <defs
     id="defs23" />
  <sodipodi:namedview
     pagecolor="#ffffff"
     bordercolor="#666666"
     borderopacity="1"
     objecttolerance="10"
     gridtolerance="10"
     guidetolerance="10"
     inkscape:pageopacity="0"
     inkscape:pageshadow="2"
     inkscape:window-width="1920"
     inkscape:window-height="1017"
     id="namedview21"
     showgrid="false"
     inkscape:zoom="0.4609375"
     inkscape:cx="256"
     inkscape:cy="256"
     inkscape:window-x="-8"
     inkscape:window-y="-8"
     inkscape:window-maximized="1"
     inkscape:current-layer="g18" />
  <g
     id="g18">
    <path
       d="m457 512h-402c-30.327 0-55-24.673-55-55v-260c0-8.284 6.716-15 15-15h482c8.284 0 15 6.716 15 15v260c0 30.327-24.673 55-55 55z"
       fill="#f5f5ff"
       id="path2"
       style="fill:#f2f2f2" />
    <path
       d="m497 182h-241v330h201c30.327 0 55-24.673 55-55v-260c0-8.284-6.716-15-15-15z"
       fill="#e2e7fa"
       id="path4"
       style="fill:#e6e6e6" />
    <path
       d="m457 60h-402c-30.327 0-55 24.673-55 55v82h512v-82c0-30.327-24.673-55-55-55z"
       fill="#ef5ca2"
       id="path6"
       style="fill:#d40000" />
    <path
       d="m457 60h-201v137h256v-82c0-30.327-24.673-55-55-55z"
       fill="#ea1c81"
       id="path8"
       style="fill:#aa0000" />
    <path
       d="m376 0c-16.569 0-30 13.431-30 30v90c0 16.569 13.431 30 30 30 16.569 0 30-13.431 30-30v-90c0-16.569-13.431-30-30-30z"
       fill="#ffc178"
       id="path10"
       style="fill:#ac9d93" />
    <path
       d="m136 150c-16.569 0-30-13.431-30-30v-90c0-16.569 13.431-30 30-30 16.569 0 30 13.431 30 30v90c0 16.569-13.431 30-30 30z"
       fill="#fffa8c"
       id="path12"
       style="fill:#c8beb7" />
    <path
       d="m 312.50976,302 c 0,-33.084 -26.916,-60 -60,-60 -28.607,0 -53.367,20.35 -58.874,48.387 -1.597,8.129 3.699,16.013 11.828,17.61 8.12,1.596 16.012,-3.699 17.609,-11.828 2.751,-14.004 15.131,-24.169 29.437,-24.169 16.542,0 30,13.458 30,30 0,16.542 -13.458,30 -30,30 -8.284,0 -15,6.716 -15,15 0,8.284 6.716,15 15,15 16.542,0 30,13.458 30,30 0,16.542 -13.458,30 -30,30 -14.886,0 -27.658,-11.09 -29.71,-25.796 -0.192,-1.378 -0.29,-2.792 -0.29,-4.204 0,-8.284 -6.716,-15 -15,-15 -8.284,0 -15,6.716 -15,15 0,2.793 0.194,5.603 0.577,8.35 4.109,29.445 29.655,51.65 59.423,51.65 33.084,0 60,-26.916 60,-60 0,-17.908 -7.896,-33.997 -20.377,-45 12.481,-11.003 20.377,-27.092 20.377,-45 z"
       id="path16"
       inkscape:connector-curvature="0"
       style="fill:#ff0000" />
  </g>
</svg>
