<svg id="Layer_1" enable-background="new 0 0 511.952 511.952" height="24" viewBox="0 0 511.952 511.952" width="24" xmlns="http://www.w3.org/2000/svg"><g><g><path d="m511.952 339.909h-81.363v-30h51.363v-109.945h-51.363v-30h81.363z" fill="#e1ebf0"/></g><g><path d="m511.952 339.909h-81.363v-30h51.363v-109.945h-51.363v-30h81.363z" fill="#b4d2d7"/></g><g><path d="m81.363 339.909h-81.363v-169.945h81.363v30h-51.363v109.945h51.363z" fill="#e1ebf0"/></g><path d="m433.554 139.361c-58.906-11.879-118.652-17.902-177.578-17.902s-118.672 6.023-177.578 17.902l-12.035 2.427v84.982h379.226v-84.982z" fill="#00cc76"/><path d="m445.589 141.788-12.035-2.427c-58.901-11.878-118.642-17.901-177.562-17.902v105.311h189.597z" fill="#00aa95"/><path d="m66.363 283.103v87.061l12.035 2.427c58.906 11.879 118.652 17.902 177.578 17.902s118.672-6.023 177.578-17.902l12.035-2.427v-87.061z" fill="#00cc76"/><path d="m433.554 372.591 12.035-2.427v-87.061h-189.597v107.39c58.92-.001 118.661-6.024 177.562-17.902z" fill="#00aa95"/><path d="m66.363 199.958h379.226v109.982h-379.226z" fill="#a5e887"/><path d="m255.992 199.958h189.597v109.982h-189.597z" fill="#00cc76"/></g></svg>