<svg id="Capa_1" enable-background="new 0 0 512 512" height="512" viewBox="0 0 512 512" width="512" xmlns="http://www.w3.org/2000/svg"><g><g><g><g><g><g><g><circle cx="256" cy="256" fill="#bcdefa" r="256"/></g></g></g></g></g></g><path d="m295.495 508.972c122.633-18.991 216.505-125.019 216.505-252.972 0-2.09-.025-4.175-.075-6.253l-58.876-58.876-14.939 11.475-85.578-85.578-21.133 67.881-75.399-75.399-142.085 218.141z" fill="#92cbf7"/><g><path d="m241.917 382.96c-96.275-50.74-133.188-169.918-82.449-266.192 96.276 50.739 133.189 169.917 82.449 266.192z" fill="#ff468c"/></g><g><path d="m270.083 382.96c96.275-50.74 133.188-169.918 82.449-266.192h-.001c-96.275 50.739-133.188 169.918-82.448 266.192z" fill="#be1964"/></g><g><g><path d="m256 387.919c-108.827 0-197.048-88.221-197.048-197.048 108.827-.001 197.048 88.221 197.048 197.048z" fill="#ff5f96"/></g><g><path d="m256 387.919c108.827 0 197.048-88.221 197.048-197.048-108.827-.001-197.048 88.221-197.048 197.048z" fill="#d72878"/></g></g><g><path d="m256 387.919c-76.952-76.952-76.952-201.716 0-278.669 76.952 76.952 76.952 201.717 0 278.669z" fill="#ff73a5"/></g><g><path d="m256 387.919c.005.005-.005-.005 0 0 76.952-76.952 76.952-201.717 0-278.669z" fill="#ff468c"/></g></g></svg>