<svg id="Capa_1" enable-background="new 0 0 512 512" height="512" viewBox="0 0 512 512" width="512" xmlns="http://www.w3.org/2000/svg"><g><g><g><g><g><g><g><g><circle cx="256" cy="256" fill="#ffce00" r="256"/></g></g></g></g></g></g></g><path d="m511.882 263.843-194.074-194.074-148.158 242.031 33.609 33.608-11.036 7.658 63.777 63.777v95.157c138.761 0 251.736-110.401 255.882-248.157z" fill="#fdba12"/><path d="m319.817 305.235h-2.93c-4.332 0-8.48 2.141-11.493 5.942-10.632 13.409-25.522 21.751-42.015 21.751h-17.685c-16.494 0-31.384-8.343-42.015-21.751-3.013-3.801-7.161-5.942-11.493-5.942-13.145 0-20.632 18.194-12.909 31.181 12.964 21.798 33.988 35.983 57.736 36.017v138.875c6.268.458 12.6.692 18.987.692 4.094 0 8.167-.096 12.214-.286 1.284-.17 2.566-.312 3.845-.392v-138.89h2.846c23.781 0 44.838-14.19 57.818-36.012 7.725-12.988.242-31.185-12.906-31.185z" fill="#93d632"/><path d="m319.817 305.235h-2.93c-4.332 0-8.48 2.141-11.493 5.942-10.632 13.409-25.522 21.751-42.015 21.751l-7.533 1.532v177.54h.156c5.394 0 10.748-.167 16.059-.496v-139.072h2.846c23.781 0 44.838-14.19 57.818-36.012 7.723-12.988.24-31.185-12.908-31.185z" fill="#78b22a"/><g><path d="m212.018 259.572c0-40.513 45.675-199.754 87.964-199.754s65.177 159.241 65.177 199.754-34.282 73.356-76.57 73.356-76.571-32.842-76.571-73.356z" fill="#be1964"/></g><g><path d="m299.982 259.572c0-40.513-45.675-199.754-87.964-199.754s-65.177 159.241-65.177 199.754 34.282 73.356 76.57 73.356 76.571-32.842 76.571-73.356z" fill="#ff468c"/></g><g><path d="m179.43 268.325c0-42.289 34.282-208.506 76.57-208.506s76.57 166.218 76.57 208.506-34.282 76.57-76.57 76.57-76.57-34.282-76.57-76.57z" fill="#ff73a5"/></g><g><path d="m256 59.818c-.052 0-.104.004-.156.005v285.068c.052 0 .103.004.156.004 42.289 0 76.57-34.282 76.57-76.57s-34.281-208.507-76.57-208.507z" fill="#ff468c"/></g></g></svg>