<svg id="Capa_1" enable-background="new 0 0 512 512" height="512" viewBox="0 0 512 512" width="512" xmlns="http://www.w3.org/2000/svg"><g><g><g><g><g><g><circle cx="256" cy="256" fill="#a7e340" r="256"/></g></g></g></g></g><path d="m512 256c0-6.706-.258-13.351-.764-19.926l-59.236-59.236-1.507 3.853-41.996-41.996-18.838 48.136-69.963-69.963-205.918 171.548 142.222 140.379v83.183c1.111.014-1.114.021 0 .021 141.385.001 256-114.614 256-255.999z" fill="#86c42b"/><g><path d="m338.002 156.465c0 46.802-82.002 217.365-82.002 217.365s-82.002-170.563-82.002-217.365 82.002-84.741 82.002-84.741 82.002 37.94 82.002 84.741z" fill="#c78ff5"/></g><g><path d="m256 71.724v302.018c2.015-4.199 82.002-171.065 82.002-217.277 0-46.281-80.222-83.911-82.002-84.741z" fill="#a260e5"/></g><g><path d="m217.066 205.169s-51.868-32.948-100.123-65.267c-38.552-25.82 4.617 90.801 48.478 132.354s65.408 9.234 65.408 9.234z" fill="#c78ff5"/></g><g><path d="m256 386.63s-11.735-114.026-58.16-146.245-127.185-40.462-137.84-63.547c0 0 20.776 88.925 60.021 116.627s110.808 60.358 113.116 106.528h22.863z" fill="#a260e5"/></g><g><path d="m294.934 205.169s51.868-32.948 100.123-65.267c38.552-25.82-4.617 90.801-48.479 132.354s-65.408 9.234-65.408 9.234z" fill="#a260e5"/></g><g><path d="m256 386.63s11.735-114.026 58.16-146.245 127.185-40.462 137.84-63.547c0 0-20.776 88.925-60.021 116.627s-110.808 60.358-113.117 106.528h-22.862z" fill="#7a3eb5"/></g><g><path d="m334.489 185.302c0 43.349-78.489 201.328-78.489 201.328s-78.489-157.98-78.489-201.328 78.489-78.489 78.489-78.489 78.489 35.141 78.489 78.489z" fill="#b674f2"/></g><g><path d="m256 106.833v279.712c1.979-3.99 78.489-158.455 78.489-201.243 0-42.845-76.71-77.667-78.489-78.469z" fill="#8f4cd6"/></g><g><path d="m229.474 510.642c8.719.898 17.569 1.358 26.526 1.358s17.807-.46 26.526-1.358v-124.808h-53.053v124.808z" fill="#78b22a"/></g><g><path d="m282.526 385.834h-26.526v126.166c8.943-.001 17.82-.461 26.526-1.357z" fill="#5b8a1d"/></g></g></svg>