<svg id="Capa_1" enable-background="new 0 0 512 512" height="512" viewBox="0 0 512 512" width="512" xmlns="http://www.w3.org/2000/svg"><g><g><path d="m382.065 435.447h-72.947c-9.237 0-16.725-7.488-16.725-16.725s7.488-16.725 16.725-16.725h72.947c15.569 0 28.235-12.666 28.235-28.235v-94.998c0-15.569-12.667-28.235-28.235-28.235h-72.947c-9.237 0-16.725-7.488-16.725-16.725s7.488-16.725 16.725-16.725h72.947c34.014 0 61.686 27.672 61.686 61.686v94.998c.001 34.012-27.671 61.684-61.686 61.684z" fill="#e53950"/></g><path d="m309.248 512h-199.186c-23.093 0-41.813-18.72-41.813-41.813v-317.911c0-6.004 4.867-10.871 10.871-10.871h261.07c6.004 0 10.871 4.867 10.871 10.871v317.911c0 23.093-18.72 41.813-41.813 41.813z" fill="#e53950"/><path d="m165.44 193.804-42.47 46.247c-2.267 2.469-3.525 5.698-3.525 9.05v81.752c0 4.619 3.744 8.363 8.363 8.363h75.264c4.619 0 8.363-3.744 8.363-8.363v-81.752c0-3.352-1.258-6.582-3.525-9.05z" fill="#e5eef9"/><g><path d="m165.44 229.39c-4.204 0-7.611-3.408-7.611-7.611v-80.374c0-4.204 3.408-7.611 7.611-7.611 4.204 0 7.611 3.408 7.611 7.611v80.374c0 4.203-3.408 7.611-7.611 7.611z" fill="#7a8c98"/></g><g><path d="m203.566 121.884c-4.204 0-7.611-3.408-7.611-7.611 0-11.246 4.115-17.253 7.421-22.079 2.762-4.031 4.757-6.944 4.757-13.476s-1.996-9.445-4.757-13.476c-3.306-4.827-7.421-10.833-7.421-22.08 0-11.245 4.115-17.251 7.422-22.077 2.762-4.03 4.757-6.943 4.757-13.473 0-4.204 3.408-7.611 7.612-7.611s7.611 3.408 7.611 7.611c0 11.245-4.115 17.251-7.422 22.077-2.762 4.03-4.757 6.943-4.757 13.473 0 6.532 1.996 9.445 4.757 13.476 3.306 4.827 7.421 10.833 7.421 22.079s-4.115 17.253-7.421 22.079c-2.762 4.031-4.757 6.944-4.757 13.476-.001 4.204-3.408 7.612-7.612 7.612z" fill="#b3ceec"/></g><g><path d="m146.03 121.884c-4.204 0-7.611-3.408-7.611-7.611 0-11.246 4.115-17.253 7.421-22.079 2.762-4.031 4.757-6.944 4.757-13.476s-1.996-9.445-4.757-13.476c-3.306-4.827-7.421-10.833-7.421-22.08 0-11.245 4.115-17.251 7.422-22.077 2.762-4.03 4.757-6.943 4.757-13.473 0-4.204 3.408-7.611 7.611-7.611 4.204 0 7.611 3.408 7.611 7.611 0 11.245-4.115 17.251-7.422 22.077-2.762 4.03-4.757 6.943-4.757 13.473 0 6.532 1.996 9.445 4.757 13.476 3.306 4.827 7.421 10.833 7.421 22.079s-4.115 17.253-7.421 22.079c-2.762 4.031-4.757 6.944-4.757 13.476.001 4.204-3.407 7.612-7.611 7.612z" fill="#b3ceec"/></g><g><path d="m261.101 121.884c-4.204 0-7.612-3.408-7.612-7.611 0-11.246 4.115-17.253 7.421-22.079 2.762-4.031 4.757-6.944 4.757-13.476s-1.995-9.445-4.757-13.476c-3.306-4.827-7.421-10.833-7.421-22.08 0-11.245 4.115-17.251 7.421-22.077 2.762-4.03 4.757-6.943 4.757-13.473 0-4.204 3.407-7.611 7.611-7.611s7.612 3.408 7.612 7.611c0 11.245-4.115 17.251-7.421 22.077-2.762 4.03-4.757 6.943-4.757 13.473 0 6.532 1.995 9.445 4.757 13.476 3.306 4.827 7.421 10.833 7.421 22.079s-4.115 17.253-7.421 22.079c-2.762 4.031-4.757 6.944-4.757 13.476.001 4.204-3.407 7.612-7.611 7.612z" fill="#b3ceec"/></g><g fill="#ca2e43"><path d="m382.065 217.077h-40.275c26.123 0 48.489 16.33 57.468 39.311 6.708 5.167 11.042 13.272 11.042 22.375v94.998c0 9.103-4.334 17.208-11.042 22.375-8.979 22.981-31.345 39.311-57.468 39.311h40.275c34.014 0 61.686-27.672 61.686-61.686v-94.998c0-34.014-27.671-61.686-61.686-61.686z"/><path d="m340.19 141.404h-40.275c6.004 0 10.871 4.867 10.871 10.871v317.911c0 23.093-18.72 41.813-41.813 41.813h40.275c23.093 0 41.813-18.72 41.813-41.813v-317.91c0-6.004-4.867-10.872-10.871-10.872z"/></g></g></svg>